<?xml version="1.0" encoding="UTF-8"?>
<svg width="1080" height="1080" viewBox="0 0 1080 1080" xmlns="http://www.w3.org/2000/svg">
<rect width="1080" height="1080" fill="#09090B"/><defs>
<linearGradient id="gold" x1="0%" y1="0%" x2="100%" y2="100%">
  <stop offset="0%" stop-color="#F5D576"/><stop offset="55%" stop-color="#D4AF37"/>
  <stop offset="100%" stop-color="#B8912A"/>
</linearGradient>
<radialGradient id="glow" cx="50%" cy="50%" r="50%">
  <stop offset="0%" stop-color="#D4AF37" stop-opacity="0.11"/>
  <stop offset="100%" stop-color="#D4AF37" stop-opacity="0"/>
</radialGradient>
<radialGradient id="glow2" cx="50%" cy="50%" r="50%">
  <stop offset="0%" stop-color="#D4AF37" stop-opacity="0.05"/>
  <stop offset="100%" stop-color="#D4AF37" stop-opacity="0"/>
</radialGradient>
</defs><rect x="26" y="26" width="1028" height="1028" rx="26" fill="none" stroke="#2C2C33" stroke-width="2"/><path d="M40 26.0 M40 26 L76 26" stroke="#D4AF37" stroke-width="3" opacity="0.85" fill="none"/><path d="M26 40 L26 76" stroke="#D4AF37" stroke-width="3" opacity="0.85" fill="none"/><path d="M1040 26.0 M1040 26 L1004 26" stroke="#D4AF37" stroke-width="3" opacity="0.85" fill="none"/><path d="M1054 40 L1054 76" stroke="#D4AF37" stroke-width="3" opacity="0.85" fill="none"/><path d="M40 1054.0 M40 1054 L76 1054" stroke="#D4AF37" stroke-width="3" opacity="0.85" fill="none"/><path d="M26 1040 L26 1004" stroke="#D4AF37" stroke-width="3" opacity="0.85" fill="none"/><path d="M1040 1054.0 M1040 1054 L1004 1054" stroke="#D4AF37" stroke-width="3" opacity="0.85" fill="none"/><path d="M1054 1040 L1054 1004" stroke="#D4AF37" stroke-width="3" opacity="0.85" fill="none"/><text x="327.3" y="112" font-family="DejaVu Sans" font-size="25" fill="#D4AF37" text-anchor="start" letter-spacing="9">DIÁRIO DA RIQUEZA</text><path d="M291.3359375 98 L297.3359375 104 L291.3359375 110 L285.3359375 104 Z" fill="#D4AF37" opacity="0.9"/><path d="M788.6640625 98 L794.6640625 104 L788.6640625 110 L782.6640625 104 Z" fill="#D4AF37" opacity="0.9"/><ellipse cx="540" cy="430" rx="440" ry="360" fill="url(#glow)"/><text x="369.296875" y="214" font-family="DejaVu Sans" font-size="26" fill="#F5D576" text-anchor="start" letter-spacing="6">APOIE O PROJETO</text><text x="540" y="434" font-family="Playfair Display" font-size="180" fill="url(#gold)" text-anchor="middle" font-weight="bold">R$ 50</text><text x="540" y="530" font-family="DejaVu Sans" font-size="44" fill="#FAFAFA" text-anchor="middle">Apoio que fortalece o projeto</text><circle cx="238.7" cy="630" r="14" fill="#D4AF37"/><path d="M232.7 630 l4.5 5 l8 -9" stroke="#09090B" stroke-width="3.4" fill="none" stroke-linecap="round" stroke-linejoin="round"/><text x="540.0" y="640" font-family="DejaVu Sans" font-size="30" fill="#B6B6BE" text-anchor="middle">Destaque no Mural dos Fundadores</text><circle cx="318.9" cy="688" r="14" fill="#D4AF37"/><path d="M312.9 688 l4.5 5 l8 -9" stroke="#09090B" stroke-width="3.4" fill="none" stroke-linecap="round" stroke-linejoin="round"/><text x="540.0" y="698" font-family="DejaVu Sans" font-size="30" fill="#B6B6BE" text-anchor="middle">Nome eternizado no app</text><circle cx="300.1" cy="746" r="14" fill="#D4AF37"/><path d="M294.1 746 l4.5 5 l8 -9" stroke="#09090B" stroke-width="3.4" fill="none" stroke-linecap="round" stroke-linejoin="round"/><text x="540.0" y="756" font-family="DejaVu Sans" font-size="30" fill="#B6B6BE" text-anchor="middle">Acelera o desenvolvimento</text><rect x="205.2" y="900" width="669.6" height="80" rx="40.0" fill="#141417" stroke="#2C2C33" stroke-width="2"/><text x="540.0" y="951.16" font-family="DejaVu Sans" font-size="31" fill="#ECECEF" text-anchor="middle" letter-spacing="2">diariodariqueza.vercel.app</text><path d="M248.1953125 934.0 L253.1953125 939.0 L248.1953125 944.0 L243.1953125 939.0 Z" fill="#D4AF37" opacity="0.9"/><path d="M831.8046875 934.0 L836.8046875 939.0 L831.8046875 944.0 L826.8046875 939.0 Z" fill="#D4AF37" opacity="0.9"/></svg>